<svg xmlns="http://www.w3.org/2000/svg" xmlns:xlink="http://www.w3.org/1999/xlink" width="1446.543" height="1225.831" viewBox="0 0 1446.543 1225.831"><defs><radialGradient id="a" cx="0.5" cy="0.5" r="0.716" gradientTransform="matrix(0.805, -0.594, 0.461, 0.625, -0.133, 0.484)" gradientUnits="objectBoundingBox"><stop offset="0" stop-color="#aa247f"/><stop offset="1" stop-color="#e83b5d"/></radialGradient><radialGradient id="b" cx="0.888" cy="0.336" r="0.946" gradientTransform="matrix(-0.364, 0.931, -0.859, -0.335, 1.5, -0.378)" gradientUnits="objectBoundingBox"><stop offset="0" stop-color="#4607a6"/><stop offset="1" stop-color="#941a82"/></radialGradient><radialGradient id="c" cx="0.202" cy="0.704" r="1.158" gradientTransform="matrix(0.434, -0.901, 0.858, 0.414, -0.513, 0.571)" gradientUnits="objectBoundingBox"><stop offset="0" stop-color="#d63173"/><stop offset="0.649" stop-color="#f16b6b"/><stop offset="1" stop-color="#f97c69"/></radialGradient><radialGradient id="d" cx="0.89" cy="0.044" r="1.283" gradientTransform="matrix(-0.252, 0.968, -0.858, -0.223, 1.152, -0.807)" gradientUnits="objectBoundingBox"><stop offset="0" stop-color="#fe9d6a"/><stop offset="1" stop-color="#f26379"/></radialGradient></defs><g transform="translate(-2042.319 99.477)"><path d="M3059.225,303.73S3226.452,824.182,2733.237,750,3059.225,303.73,3059.225,303.73Z" transform="translate(382.082 320.125)" fill="#730db3" stroke="#707070" stroke-width="1"/><path d="M2175.983,34.276l11.209,868.66,865-21.472,74.73-847.187Z" transform="translate(64.924 120.545)" stroke="#707070" stroke-width="1" fill="url(#a)"/><path d="M2574.1,106.4s366.187,533.636-239.2,560.2S2574.1,106.4,2574.1,106.4Z" transform="translate(-74.065 154.485)" fill="url(#b)"/><path d="M3233.21-99.477H2151.5l4.271,1127.907,145.216,5.52s-74.031-124.38-96.562-233.553,6.522-292.232,85.481-412.723,250.389-172,411.759-46.616,174.974,258.779,174.974,258.779l64.939-66.979s214.251-272.218,291.633-430.3,4.422-201.159,0-202.033" transform="translate(83.74)" fill="url(#c)"/><path d="M2152.313,1027.824C3083.631,788.812,3230.525-99.292,3230.525-99.292h161.889s98.01,879.117-268.74,1117.357S2152.313,1027.824,2152.313,1027.824Z" transform="translate(84.557 -0.186)" fill="url(#d)"/></g></svg>