<svg xmlns="http://www.w3.org/2000/svg" width="284.806" height="413.735" viewBox="0 0 284.806 413.735">
  <g id="Group_6" data-name="Group 6" transform="translate(-94.2 477.2)">
    <path id="Path_7" data-name="Path 7" d="M96.6-466.8c1.4,5.7,15.9,66.1,32.3,134.3,16.3,68.2,29.6,124.2,29.5,124.4-.2.2-5.3-4.2-11.4-9.9s-11.3-10-11.6-9.7c-.7.7,15.4,65.6,20.1,81,13,43,43.4,71.3,87,81.3,12.1,2.8,34.9,2.5,47.5-.5,21.5-5.3,40-15.3,54.6-29.8a114.849,114.849,0,0,0,33.3-98c-2.1-14.8-10.7-37.5-21-55-8.2-14-60.3-70.6-108.1-117.4-42.7-41.8-45.8-44.7-45.2-42.2,2.6,10.7,10,44.3,9.7,44.3-.2,0-25.9-24.4-57.2-54.3-31.2-29.8-57.9-55.2-59.3-56.5l-2.6-2.4ZM287.2-220a53.8,53.8,0,0,1,31,27.8c4,8,4.2,8.8,4.6,19.7.5,13.5-1.4,21.5-7.6,31.1a53.086,53.086,0,0,1-89.4,0c-5.6-8.6-7.9-17.1-7.9-28.7,0-15.5,4.5-26.4,15.7-37.4A52.737,52.737,0,0,1,287.2-220Z"/>
  </g>
</svg>
