<svg xmlns="http://www.w3.org/2000/svg" xmlns:xlink="http://www.w3.org/1999/xlink" width="384.921" height="177.604" viewBox="0 0 384.921 177.604"><defs><linearGradient id="a" x1="0.532" y1="0.548" x2="0.533" y2="0.963" gradientUnits="objectBoundingBox"><stop offset="0" stop-color="#9aa9ff" stop-opacity="0.239"/><stop offset="1" stop-color="#4d5580" stop-opacity="0"/></linearGradient></defs><g transform="translate(-2107.677 -313.975)"><g transform="translate(593.099 -1243.025)"><g transform="translate(-8 14)"><path d="M1523.565,1719.9c-1.4-1.4,37.53-35.426,37.53-35.426l37.179,25.6,42.441-59.276,37.881,33.672,41.038-33.672,38.232,43.142,43.142-76.112,38.232,14.03,41.915-79.62" fill="none" stroke="#9aa9ff" stroke-width="2"/><g transform="translate(6.774 5.846)"><line x2="382.226" transform="translate(1518.5 1561.5)" fill="none" stroke="rgba(112,112,112,0.4)" stroke-width="2"/><line x2="382.226" transform="translate(1518.5 1618.5)" fill="none" stroke="rgba(112,112,112,0.4)" stroke-width="2"/><line x2="382.226" transform="translate(1518.5 1675.5)" fill="none" stroke="rgba(112,112,112,0.4)" stroke-width="2"/><path d="M1881.153,1552.238l-41.915,79.62-38.232-14.03-43.142,76.112-38.232-43.142-41.038,33.672-37.881-33.672-42.441,59.276-37.179-25.6s-38.933,34.023-37.53,35.426,357.588-2.446,357.588-2.446Z" transform="translate(-7 -6)" fill="url(#a)"/></g></g><circle cx="7.5" cy="7.5" r="7.5" transform="translate(1866 1557)" fill="#9aa9ff"/></g></g></svg>